<svg width="24" height="24" viewBox="0 0 24 24" fill="none" xmlns="http://www.w3.org/2000/svg">
<path fill-rule="evenodd" clip-rule="evenodd" d="M20 10.5C20 15.7467 15.7467 20 10.5 20C5.25329 20 1 15.7467 1 10.5C1 5.25329 5.25329 1 10.5 1C15.7467 1 20 5.25329 20 10.5ZM8.5 7.5V14.5C8.5 15.0523 8.05228 15.5 7.5 15.5C6.94772 15.5 6.5 15.0523 6.5 14.5V10.5V7.5C6.5 6.39543 7.39543 5.5 8.5 5.5H12.5C13.6046 5.5 14.5 6.39543 14.5 7.5V11.5C14.5 12.6046 13.6046 13.5 12.5 13.5H12.25H11C10.4477 13.5 10 13.0523 10 12.5C10 11.9477 10.4477 11.5 11 11.5H12.5V7.5H8.5ZM21.5 10.5C21.5 16.5751 16.5751 21.5 10.5 21.5C9.61612 21.5 8.75663 21.3958 7.93311 21.1989C9.49744 22.332 11.4207 23 13.5 23C18.7467 23 23 18.7467 23 13.5C23 11.4207 22.332 9.49747 21.1989 7.93314C21.3957 8.75666 21.5 9.61615 21.5 10.5Z" fill="#E1CB37"></path>
</svg>