<svg width="24" height="24" viewBox="0 0 24 24" fill="none" xmlns="http://www.w3.org/2000/svg">
<path d="M16 15C16 15 18 14 18.5 11.5C18.9043 9.47848 18.5 8.5 18.5 8.5M18.5 8.5C17.5 8.5 16 7 16 5C16 3 17 2 18.5 2C20 2 21 3 21 5C21 7 19.5 8.5 18.5 8.5Z" stroke="#0194F3" stroke-width="2" stroke-linecap="round" stroke-linejoin="round"></path>
<path d="M9 10.5L8.5 16V17M9 10.5H13M9 10.5L6 15M13 10.5L13.5 16V17M13 10.5L16 15M8.5 17L9 21M8.5 17H13.5M13.5 17L13 21M11 4.5V4.5C12.1046 4.5 13 5.39543 13 6.5V6.5C13 7.60457 12.1046 8.5 11 8.5V8.5C9.89543 8.5 9 7.60457 9 6.5V6.5C9 5.39543 9.89543 4.5 11 4.5Z" stroke="#0194F3" stroke-width="2" stroke-linecap="round" stroke-linejoin="round"></path>
</svg>